# xmcd CD database file
#
# Track frame offsets:
#	150
#	22546
#	45862
#	67731
#	88648
#	108515
#	129689
#	148977
#	170499
#	194410
#
# Disc length: 2885 seconds
#
# Revision: 1
# Processed by: cddbd v1.5.2PL0 Copyright (c) Steve Scherf et al.
# Submitted via: CDex 1.70beta2
#
DISCID=7e0b430a
DTITLE=松田聖子 - Glorious Revolution
DYEAR=1900
DGENRE=JPop
TTITLE0=Back For More
TTITLE1=There For You(Album Mix)
TTITLE2=もう一度、初めから
TTITLE3=わがままなあなた
TTITLE4=Babies Breath
TTITLE5=はじまりはBreak Up
TTITLE6=天下のプレイガール
TTITLE7=未来へのDistance
TTITLE8=わたしにできるすべてのこと
TTITLE9=続…パラダイス
EXTD=
EXTT0=
EXTT1=
EXTT2=
EXTT3=
EXTT4=
EXTT5=
EXTT6=
EXTT7=
EXTT8=
EXTT9=
PLAYORDER=
